<svg width="173" height="40" viewBox="0 0 173 40" fill="none" xmlns="http://www.w3.org/2000/svg">
<path d="M154.488 39.5H18.4625C8.51446 39.5 0.450012 30.8032 0.450012 20.075C0.450012 9.34689 8.51446 0.650024 18.4625 0.650024H44.5008C44.8707 0.650024 45.1706 0.949916 45.1706 1.31985C45.1706 1.68979 44.8707 1.98968 44.5008 1.98968H18.4625C9.20053 1.98968 1.69225 10.0868 1.69225 20.075C1.69225 30.0633 9.20053 38.1604 18.4625 38.1604H154.488C163.556 38.1604 170.944 30.3974 171.248 20.6973C171.259 20.3544 171.536 20.075 171.879 20.075C172.222 20.075 172.501 20.3546 172.491 20.6975C172.186 31.1375 164.242 39.5 154.488 39.5Z" fill="#D31900"/>
</svg>
