<svg width="245" height="56" viewBox="0 0 245 56" fill="none" xmlns="http://www.w3.org/2000/svg">
<rect x="0.5" y="1.5" width="243" height="53" rx="26.5" fill="white" stroke="#FBC99D"/>
<path d="M219.35 56H25.6498C11.4838 56 0 43.464 0 28C0 12.536 11.4838 0 25.6498 0H62.7168C63.25 0 63.6823 0.432277 63.6823 0.965517C63.6823 1.49876 63.25 1.93103 62.7168 1.93103H25.6498C12.4608 1.93103 1.76895 13.6025 1.76895 28C1.76895 42.3975 12.4608 54.069 25.6498 54.069H219.35C232.268 54.069 242.79 42.8734 243.218 28.8861C243.232 28.3979 243.627 28 244.116 28C244.604 28 245.001 28.3981 244.987 28.8864C244.559 43.9402 233.245 56 219.35 56Z" fill="#FF9900"/>
</svg>
