<svg width="25" height="24" viewBox="0 0 25 24" fill="none" xmlns="http://www.w3.org/2000/svg">
<path d="M24.6612 8.40308C24.8421 8.18887 24.773 7.79243 24.4561 7.71661C22.7076 7.29902 20.5931 7.49539 18.7999 7.49857C18.1232 7.49972 17.1909 7.43919 16.3155 7.52177C16.8714 7.25505 17.4002 6.93482 17.8786 6.55838C19.1806 5.53396 19.7988 3.00649 18.5148 1.71102C16.5749 -0.246205 13.9073 2.38819 12.5271 4.79346C11.9361 2.5211 10.28 0.131374 8.05238 1.08456C6.49397 1.75116 6.35038 3.99535 6.91918 5.28955C7.38843 6.35755 8.5555 7.17006 9.78863 7.56165C6.95807 7.25939 4.10908 7.21326 1.26267 7.08366C0.982849 7.07091 0.747838 7.32489 0.748482 7.59249C0.751572 8.9397 0.482951 10.6693 1.36853 11.8106C1.3917 11.8403 1.419 11.8645 1.44888 11.8832C1.36672 11.9146 1.28418 11.9434 1.20189 11.9774C0.931082 12.0897 1.02805 12.4625 1.32371 12.4144C2.96197 12.1474 4.59353 12.152 6.22406 12.2533C6.24981 12.2594 6.27402 12.2602 6.29771 12.2578C8.07711 12.3714 9.85521 12.5977 11.6399 12.7146C11.8533 12.7286 12.1089 12.5477 12.1453 12.3337C12.3449 11.1626 12.7673 9.52091 12.411 8.36498C12.4009 8.33223 12.3837 8.30878 12.3691 8.28177C12.4196 8.29936 12.4734 8.31286 12.5343 8.31618C13.0358 8.34345 13.5385 8.3135 14.0348 8.23755C13.9606 8.32866 13.9077 8.42781 13.8642 8.53052C13.8031 8.57257 13.7676 8.64469 13.7997 8.71631C13.6991 9.08586 13.7221 9.49951 13.7088 9.88855C13.6818 10.6599 13.6976 11.4303 13.7968 12.1957C13.8472 12.5841 14.3 12.6313 14.4493 12.3384C16.0423 12.2282 17.6226 12.085 19.2214 12.0659C20.866 12.0462 22.3775 12.4467 23.985 12.6022C24.1333 12.6165 24.2346 12.5582 24.2982 12.4704C24.377 12.4368 24.444 12.3764 24.4715 12.2797C24.6769 11.5574 24.859 10.8416 24.9458 10.095C25.0041 9.59049 25.0874 8.78398 24.6612 8.40308ZM1.91388 11.7196C1.91929 11.6799 1.918 11.6369 1.90216 11.5879C1.64462 10.7887 1.65131 9.90703 1.69844 9.03846C1.88323 9.41973 2.12237 9.77387 2.38596 10.1108C2.66424 10.4662 3.01773 11.008 3.41525 11.3669C2.91278 11.4461 2.41223 11.5591 1.91388 11.7196ZM4.06388 11.2842C3.8129 10.8477 3.25647 10.4694 2.92231 10.1107C2.44958 9.60311 2.02012 9.04406 1.74068 8.40818C1.73965 8.40563 1.73759 8.40461 1.73643 8.40232C1.74223 8.30993 1.74828 8.21754 1.75343 8.1263C1.79477 8.12834 1.8361 8.13 1.87744 8.13216C2.39343 8.87981 3.04103 9.53289 3.70113 10.1559C4.06465 10.4988 4.44351 10.8759 4.83936 11.2326C4.58052 11.2433 4.32169 11.2586 4.06388 11.2842ZM5.80104 11.2233C5.29805 10.8019 4.72707 10.4277 4.24133 10.0255C3.54454 9.44879 2.90003 8.82947 2.31012 8.15294C2.7916 8.17587 3.27347 8.19677 3.75521 8.21754C3.7641 8.23844 3.77273 8.25947 3.78947 8.27922C4.4511 9.06216 5.17726 9.77782 5.94887 10.4544C6.22521 10.6967 6.54509 11.0012 6.88672 11.2707C6.52345 11.2479 6.16134 11.2295 5.80104 11.2233ZM8.08625 11.3654C7.51488 10.8224 6.72808 10.4152 6.12464 9.90754C5.50911 9.38966 4.92769 8.82781 4.37345 8.24443C4.82841 8.26431 5.28324 8.28623 5.73794 8.30891C5.73961 8.36524 5.76176 8.42207 5.81816 8.46387C6.59428 9.03999 7.293 9.67855 7.98207 10.3524C8.34895 10.711 8.72844 11.1174 9.14232 11.4665C8.78922 11.4319 8.43651 11.3973 8.08625 11.3654ZM10.3109 11.5657C9.63926 10.9311 8.83532 10.4063 8.13492 9.79566C7.54656 9.28287 6.95382 8.77722 6.3084 8.33848C6.99683 8.37607 7.68448 8.42296 8.37135 8.47916C8.67886 9.09593 9.13537 9.63344 9.61955 10.1225C10.0133 10.5205 10.5216 11.0409 11.063 11.3598C10.9155 11.5277 10.6903 11.5786 10.3109 11.5657ZM11.3607 10.0712C11.3424 10.299 11.3223 10.484 11.2997 10.6507C10.9254 10.3776 10.5197 10.1304 10.1747 9.8386C9.70841 9.44407 9.2689 9.01603 8.9131 8.52453C9.71691 8.59831 10.519 8.6898 11.3186 8.81061C11.3684 8.81813 11.4153 8.81787 11.4606 8.81392C11.3861 9.22616 11.3937 9.6616 11.3607 10.0712ZM8.68917 5.73199C7.53626 4.81703 7.38662 1.13719 9.46657 2.07318C11.0066 2.76615 11.9527 5.37952 11.6517 6.91825C11.6533 6.91838 11.6548 6.91863 11.6564 6.91889C11.6506 6.95075 11.6449 6.9826 11.6405 7.01332C10.5261 6.86728 9.57732 6.43707 8.68917 5.73199ZM11.9644 8.06985C11.9223 7.94611 11.8216 7.84697 11.6562 7.80556C11.7103 7.80135 11.7657 7.79957 11.8186 7.79294C11.8923 7.78377 11.9513 7.75815 12.0029 7.72629C12.0003 7.84748 12.0339 7.97033 12.1014 8.07329C12.0566 8.06501 12.0104 8.06399 11.9644 8.06985ZM23.9411 8.61832C23.8567 9.07172 24.0199 9.62821 23.9994 10.0949C23.9935 10.2315 23.9826 10.3682 23.9737 10.5049C23.7026 10.0932 23.2246 9.7392 22.8837 9.40279C22.6335 9.15582 22.3787 8.91255 22.115 8.67961C22.7368 8.70242 23.3541 8.69796 23.9411 8.61832ZM12.6943 7.22613C12.6961 7.21861 12.6994 7.21236 12.701 7.20446C12.7149 7.13285 12.7265 7.0583 12.7357 6.98108C13.0085 5.25527 15.3147 1.92434 17.327 2.19449C18.4028 2.33874 18.0597 4.40364 17.8193 4.92866C17.4983 5.63017 16.7463 6.07911 16.1029 6.43592C15.1032 6.99063 13.8431 7.26066 12.6943 7.22613ZM14.5505 11.6428C14.5929 11.1438 14.6118 10.6436 14.6406 10.1423C14.6501 9.97737 14.6731 9.80942 14.6967 9.6407C14.9293 9.89276 15.1575 10.1489 15.3838 10.4067C15.6416 10.7003 15.9123 11.0633 16.2188 11.3677C15.6586 11.4497 15.1009 11.5397 14.5505 11.6428ZM16.9932 11.2614C16.6317 10.8289 16.1093 10.4523 15.7296 10.0644C15.411 9.73895 15.092 9.41642 14.7589 9.10867C14.7723 8.91332 14.7695 8.72039 14.7293 8.5337C14.9076 8.57818 15.095 8.60952 15.2882 8.63221C15.9401 9.21559 16.5589 9.83389 17.2033 10.4253C17.4088 10.6138 17.6836 10.9172 17.982 11.159C17.6522 11.1882 17.3224 11.2214 16.9932 11.2614ZM19.8086 11.0684C19.5128 11.0696 19.2157 11.08 18.9185 11.0946C18.7984 10.9264 18.6149 10.8212 18.4401 10.6988C18.0905 10.4537 17.7623 10.1778 17.4339 9.90627C16.9359 9.49428 16.44 9.07949 15.9367 8.674C16.2658 8.68165 16.6051 8.67056 16.9455 8.65247C16.9396 8.71351 16.9576 8.77506 17.0178 8.82131C17.6888 9.33665 18.3374 9.87861 18.9952 10.41C19.2532 10.6185 19.5275 10.8528 19.8161 11.0684C19.8138 11.0684 19.8112 11.0684 19.8086 11.0684ZM20.9758 11.0743C20.4517 10.6864 19.85 10.3718 19.3283 9.98285C18.7254 9.53328 18.1495 9.05107 17.5364 8.61564C18.1011 8.57588 18.6507 8.53332 19.1487 8.52988C19.8407 9.1051 20.479 9.73436 21.128 10.3565C21.3781 10.5962 21.635 10.8682 21.9043 11.1295C21.5947 11.0992 21.2824 11.0817 20.9758 11.0743ZM23.1607 11.3668C22.6018 10.797 21.8766 10.3104 21.2912 9.78954C20.8007 9.35309 20.29 8.93983 19.7666 8.54275C20.2748 8.56467 20.8034 8.60646 21.3361 8.64062C21.734 9.01221 22.1134 9.39884 22.4785 9.80381C22.8322 10.1962 23.1873 10.7742 23.661 11.025C23.7599 11.0774 23.8598 11.0695 23.9384 11.026C23.9213 11.2393 23.9035 11.4525 23.8865 11.6658C23.66 11.5416 23.4158 11.445 23.1607 11.3668Z" fill="#fff"/>
<path d="M11.8182 16.5401C11.8151 15.7512 11.7577 14.9641 11.603 14.185C11.5587 13.9616 11.3208 13.8105 11.103 13.8082C8.45451 13.7812 5.54024 13.2321 3.045 14.3609C2.77857 14.4813 2.83484 14.8185 3.02517 14.9682C2.3831 17.3985 2.67825 19.9804 2.6901 22.4657C2.69151 22.7715 2.93567 22.9819 3.23069 23.0006C5.61596 23.1526 8.00033 23.0089 10.3873 22.9921C10.5366 22.9911 10.6518 22.9386 10.7361 22.8598C10.967 22.9527 11.2828 22.8578 11.3527 22.5825C11.6583 21.3787 11.6131 20.001 11.7152 18.7634C11.7718 18.0769 11.8132 17.3881 11.8169 16.7004C11.8383 16.6511 11.8416 16.5945 11.8182 16.5401ZM10.7437 15.5525C10.673 15.4925 10.6016 15.433 10.5342 15.371C10.3295 15.1826 10.1369 14.9835 9.94584 14.7831C10.1854 14.7971 10.4271 14.8143 10.6634 14.8228C10.7007 15.0652 10.7249 15.3087 10.7437 15.5525ZM3.76046 21.9572C3.74656 21.3313 3.72325 20.7071 3.69981 20.0838C4.09656 20.6577 4.59131 21.1916 5.04897 21.6776C5.15353 21.7886 5.25926 21.898 5.37077 21.999C4.83392 21.9945 4.29732 21.9828 3.76046 21.9572ZM8.04617 21.9703C8.03407 21.9557 8.02273 21.9419 8.01681 21.9345C7.66436 21.4906 7.25241 21.1554 6.82244 20.7874C5.7889 19.9029 4.87178 18.8878 4.09386 17.7771C3.97036 17.6006 3.68462 17.7583 3.79922 17.9474C4.46949 19.0541 5.31386 20.0167 6.23793 20.9228C6.60236 21.2802 6.96615 21.6093 7.29465 21.9813C6.97078 21.9863 6.64692 21.9931 6.32318 21.9954C6.32318 21.9556 6.31983 21.9154 6.30992 21.8755C6.26858 21.7116 6.07246 21.684 5.95618 21.7615C5.88728 21.7097 5.81826 21.6584 5.75156 21.6041C5.45023 21.3583 5.17594 21.0786 4.9059 20.8001C4.48147 20.3623 4.01634 19.898 3.67367 19.3826C3.63014 18.1752 3.60233 16.9692 3.64727 15.7575C5.48255 18.027 8.3985 19.4581 9.91197 21.9457C9.28999 21.9512 8.66802 21.9592 8.04617 21.9703ZM10.6782 18.7634C10.613 19.6411 10.4157 20.6081 10.4066 21.5315C9.90965 20.5446 8.72004 19.7003 7.9926 19.072C6.53669 17.8149 4.8741 16.6417 3.67792 15.1154C3.68191 15.0504 3.68268 14.9856 3.68706 14.9206C3.83425 14.8803 3.9826 14.8449 4.13172 14.8133C4.89483 15.9108 6.08109 16.8268 7.05011 17.7125C7.77137 18.3717 8.65887 19.5047 9.61386 19.8406C9.80251 19.9068 9.94648 19.6787 9.85969 19.524C9.4104 18.7216 8.28736 18.0914 7.60177 17.5059C6.56399 16.6196 5.52917 15.7184 4.58835 14.7299C4.93539 14.6755 5.28784 14.6465 5.64197 14.6266C5.4756 14.9398 7.01096 16.2664 7.16626 16.4179C7.77124 17.0084 8.38613 17.5894 9.01262 18.1576C9.34936 18.4629 9.89162 19.1387 10.3874 19.1533C10.5238 19.1574 10.6688 19.0012 10.6103 18.8638C10.4533 18.4953 9.96245 18.2528 9.6588 18.0075C9.11332 17.5667 8.58341 17.1067 8.05609 16.6448C7.33341 16.012 6.46033 15.0708 5.70713 14.7234C5.77396 14.7543 5.82045 14.6708 5.76379 14.6276C5.76083 14.6248 5.75697 14.6235 5.75375 14.621C6.36748 14.592 6.9892 14.6057 7.6113 14.6368C8.05699 15.2678 8.56513 15.852 9.11113 16.403C9.54149 16.8374 10.1207 17.4531 10.7436 17.798C10.7252 18.1205 10.7019 18.4426 10.6782 18.7634ZM10.7735 17.119C10.3754 16.8455 9.97198 16.5774 9.60613 16.2541C9.05588 15.7682 8.53409 15.233 8.06317 14.6628C8.51684 14.6906 8.96948 14.7238 9.4189 14.7541C9.64 15.0195 9.87437 15.2748 10.11 15.5255C10.3207 15.7495 10.5408 15.9916 10.7762 16.2153C10.7831 16.5161 10.783 16.8175 10.7735 17.119Z" fill="#fff"/>
<path d="M22.9164 18.2876C22.8289 17.3441 22.7861 16.1201 22.2679 15.2923C22.3187 15.2701 22.3672 15.2459 22.4104 15.2166C22.6129 15.0796 22.7286 14.7325 22.4967 14.5537C22.092 14.2418 21.5353 14.2802 21.044 14.2221C19.8928 14.086 18.7419 13.9545 17.5858 13.8674C17.282 13.8443 16.8826 13.8011 16.4509 13.7734C16.4374 13.7557 16.4229 13.7392 16.4093 13.7215C16.3316 13.619 16.1799 13.6649 16.1527 13.7566C15.6172 13.7343 15.0513 13.7476 14.5586 13.8624C14.4974 13.8352 14.4253 13.8568 14.3903 13.9038C13.9366 14.0368 13.561 14.2695 13.3555 14.6606C12.5772 16.142 13.0129 18.5098 13.1613 20.0832C13.1897 20.3856 13.3217 23.2481 14.1486 22.6233C14.2002 22.7513 14.3164 22.8537 14.5022 22.8607C17.2434 22.9648 19.9792 22.8125 22.6967 22.4489C22.9294 22.4178 23.0938 22.1471 23.0927 21.9342C23.0862 20.7155 23.0287 19.5015 22.9164 18.2876ZM21.4202 15.4172C21.4122 15.7848 21.4581 16.16 21.5222 16.5365C21.5001 16.5139 21.4773 16.4912 21.4561 16.4689C21.0555 16.0468 20.6487 15.6415 20.2017 15.2722C20.6125 15.3459 21.0376 15.4086 21.4202 15.4172ZM19.7139 15.18C19.7022 15.2287 19.7099 15.2807 19.7549 15.3194C20.2169 15.7179 20.6429 16.1521 21.0503 16.6046C21.2776 16.8569 21.4763 17.1601 21.6933 17.4408C21.7382 17.6749 21.7801 17.9076 21.8098 18.1378C21.427 17.7981 21.0712 17.427 20.7149 17.0609C20.0579 16.3863 19.4338 15.6778 18.7674 15.012C19.0158 15.0404 19.3485 15.108 19.7139 15.18ZM18.3781 14.9659C19.2313 15.8665 19.9796 16.8596 20.7919 17.7953C21.0185 18.0563 21.4332 18.6356 21.8819 18.9505C21.9058 19.2413 21.9347 19.5318 21.9505 19.8231C20.4839 18.1083 18.8106 16.5633 17.3297 14.8459C17.7406 14.8866 18.11 14.9329 18.3781 14.9659ZM16.0444 21.9886C15.8817 21.9178 15.7389 21.7554 15.6205 21.6389C15.2442 21.269 14.9045 20.8584 14.5619 20.458C14.5308 20.4217 14.4829 20.4283 14.4498 20.4532C14.3748 20.3706 14.3299 20.2931 14.3294 20.1636C14.3294 20.1551 14.3159 20.1551 14.316 20.1636C14.3166 20.3086 14.3572 20.3759 14.4414 20.4647C14.416 20.4905 14.4021 20.5266 14.428 20.5602C14.8071 21.0551 15.1941 21.5447 15.6085 22.0114C15.2396 22.031 14.8706 22.0522 14.5018 22.0697C14.4521 22.0722 14.4117 22.0862 14.3716 22.1006C14.4511 21.3694 14.1599 20.1641 14.1309 19.7485C14.106 19.3909 14.0766 19.0221 14.0526 18.648C14.6162 19.4727 15.3674 20.1993 16.062 20.8881C16.2777 21.1018 16.6853 21.5798 17.1209 21.9212C16.762 21.9447 16.4034 21.9683 16.0444 21.9886ZM18.0133 21.859C16.4991 20.8542 14.9461 19.4565 14.0158 17.8988C14.004 17.5562 14.0065 17.2137 14.0199 16.8735C14.8404 17.7097 15.6189 18.5881 16.3971 19.461C17.0527 20.1964 17.6955 21.1339 18.4653 21.821C18.3147 21.8326 18.1643 21.8479 18.0133 21.859ZM19.151 21.763C18.5413 20.8988 17.6681 20.1501 16.9533 19.3869C16.0125 18.3832 15.0611 17.387 14.0425 16.4598C14.0771 16.0434 14.1384 15.6341 14.245 15.2415C15.254 16.4572 16.3334 17.626 17.385 18.8004C18.0218 19.5116 18.6618 20.22 19.3139 20.9175C19.5338 21.1526 19.8218 21.5403 20.1729 21.5979C20.3511 21.627 20.5472 21.4026 20.3717 21.26C19.343 20.4246 18.4236 19.2187 17.5024 18.257C16.4715 17.1807 15.4565 16.0895 14.4314 15.0083C14.5558 14.9242 14.7395 14.8676 14.9556 14.8288C16.0055 16.2595 17.2076 17.5991 18.3883 18.9131C18.9654 19.5554 19.942 20.9115 20.9513 21.5881C20.3519 21.6525 19.7518 21.7117 19.151 21.763ZM21.9964 21.4685C20.6751 20.6744 19.5639 19.3589 18.5089 18.2789C17.4103 17.1543 16.3269 15.9953 15.3221 14.781C15.7807 14.7447 16.3294 14.7647 16.855 14.8047C17.5504 15.723 18.3045 16.5982 19.0623 17.4658C19.9135 18.4405 20.8053 19.6473 21.9279 20.3136C21.9434 20.3228 21.9582 20.3264 21.9731 20.3308C21.9884 20.7097 22.0003 21.0887 22.0062 21.4678C22.003 21.4678 21.9998 21.468 21.9964 21.4685Z" fill="#fff"/>
</svg>
