<svg width="23" height="22" viewBox="0 0 23 22" fill="none" xmlns="http://www.w3.org/2000/svg">
<path d="M22.7389 10.1224L13.3776 0.723955C13.3656 0.711858 13.3532 0.700119 13.3405 0.688738C12.3183 -0.226674 10.7737 -0.229945 9.74759 0.681166C9.73483 0.692502 9.72243 0.704196 9.71035 0.716204L0.263776 10.1197C-0.0874231 10.4693 -0.0880071 11.0367 0.262518 11.387C0.613088 11.7373 1.18193 11.7378 1.53309 11.3882L2.24609 10.6785V18.4156C2.24609 20.392 3.85824 22 5.83984 22H9.07421C9.57042 22 9.97265 21.5988 9.97265 21.1039V13.8007H13.1172V21.1039C13.1172 21.5988 13.5194 22 14.0156 22H17.1601C19.1417 22 20.7539 20.392 20.7539 18.4156C20.7539 17.9207 20.3517 17.5195 19.8555 17.5195C19.3592 17.5195 18.957 17.9207 18.957 18.4156C18.957 19.4038 18.1509 20.2078 17.1601 20.2078H14.914V12.9046C14.914 12.4097 14.5118 12.0085 14.0156 12.0085H9.07421C8.578 12.0085 8.17577 12.4097 8.17577 12.9046V20.2078H5.83984C4.84904 20.2078 4.04296 19.4038 4.04296 18.4156V8.91692C4.04296 8.90796 4.04283 8.89904 4.04256 8.89017L10.9585 2.00583C11.2951 1.72073 11.7888 1.72181 12.1241 2.00829L18.957 8.8684V13.9351C18.957 14.43 19.3592 14.8312 19.8555 14.8312C20.3517 14.8312 20.7539 14.43 20.7539 13.9351V10.6724L21.4642 11.3855C21.6398 11.5619 21.8706 11.6501 22.1015 11.6501C22.3305 11.6501 22.5595 11.5633 22.7348 11.3897C23.0868 11.0409 23.0887 10.4735 22.7389 10.1224Z" fill="#D31900"/>
</svg>
