<svg width="18" height="17" viewBox="0 0 18 17" fill="none" xmlns="http://www.w3.org/2000/svg">
<path d="M17.3921 15.6237L12.5554 10.787C13.4728 9.6544 14.025 8.21456 14.025 6.64692C14.025 3.01286 11.0684 0.0562744 7.43437 0.0562744C3.8003 0.0562744 0.84375 3.01286 0.84375 6.64692C0.84375 10.281 3.80033 13.2376 7.4344 13.2376C9.00204 13.2376 10.4419 12.6853 11.5744 11.768L16.4111 16.6047C16.5466 16.7401 16.7662 16.7401 16.9017 16.6047L17.3922 16.1142C17.5276 15.9787 17.5276 15.7591 17.3921 15.6237ZM7.4344 11.8501C4.56523 11.8501 2.23126 9.51609 2.23126 6.64692C2.23126 3.77775 4.56523 1.44379 7.4344 1.44379C10.3036 1.44379 12.6375 3.77775 12.6375 6.64692C12.6375 9.51609 10.3036 11.8501 7.4344 11.8501Z" fill="#BDBDBD"/>
</svg>
